<svg width="40" height="40" viewBox="0 0 40 40" fill="none" xmlns="http://www.w3.org/2000/svg">
<path d="M12 20C15.8687 20 19 16.8687 19 13C19 9.13125 15.8687 6 12 6C8.13125 6 5 9.13125 5 13C5 16.8687 8.13125 20 12 20ZM16.8 22H16.2812C14.9812 22.625 13.5375 23 12 23C10.4625 23 9.025 22.625 7.71875 22H7.2C3.225 22 0 25.225 0 29.2V31C0 32.6562 1.34375 34 3 34H21C22.6562 34 24 32.6562 24 31V29.2C24 25.225 20.775 22 16.8 22ZM30 20C33.3125 20 36 17.3125 36 14C36 10.6875 33.3125 8 30 8C26.6875 8 24 10.6875 24 14C24 17.3125 26.6875 20 30 20ZM33 22H32.7625C31.8938 22.3 30.975 22.5 30 22.5C29.025 22.5 28.1062 22.3 27.2375 22H27C25.725 22 24.55 22.3687 23.5187 22.9625C25.0437 24.6062 26 26.7875 26 29.2V31.6C26 31.7375 25.9688 31.8687 25.9625 32H37C38.6562 32 40 30.6562 40 29C40 25.1313 36.8688 22 33 22Z" fill="#161C33"/>
</svg>
