<svg width="23" height="23" viewBox="0 0 23 23" fill="none" xmlns="http://www.w3.org/2000/svg">
<path d="M10.707 21.9686C10.2749 22.1342 9.79328 22.165 9.3623 21.9882L9.35352 21.9843L9.34375 21.9803C8.37612 21.6142 7.63759 20.3595 7.87012 19.1298L7.87402 19.1122L7.87598 19.0946L8.41602 15.2479L8.41699 15.2343C8.45973 14.8837 8.37089 14.5877 8.19824 14.369V14.368C8.0185 14.1408 7.73183 13.9814 7.39258 13.9813H3.04102C2.29033 13.9813 1.6492 13.6827 1.2334 13.1434L1.15332 13.0321C0.758194 12.4461 0.632121 11.6441 0.868164 10.7684L0.920898 10.5927C0.990327 10.3768 1.0588 10.1388 1.12891 9.88171L1.3457 9.05457L1.38086 8.92078C1.45142 8.64632 1.5247 8.35855 1.60352 8.0614L1.85645 7.14343C2.19889 5.95559 2.6378 4.66801 3.2666 3.43835L3.54785 2.91589C4.27771 1.6268 5.07402 0.749878 6.3916 0.749878H14.6152V13.0341C14.6153 13.8203 14.91 14.5508 15.4062 15.08L11.7812 21.0897L11.7773 21.0956C11.5687 21.4439 11.2369 21.7246 10.8672 21.9003L10.707 21.9686Z" stroke="#569FF3" stroke-width="1.5"/>
<path d="M21.0757 13.4964H17.269C17.2227 13.4964 17.1503 13.4762 17.0737 13.3851C16.9958 13.2923 16.9312 13.1411 16.9312 12.9515V0.750305H21.0757C21.122 0.750305 21.1944 0.770372 21.271 0.861633C21.3489 0.954509 21.4136 1.10558 21.4136 1.29523V12.9515C21.4135 13.1411 21.349 13.2923 21.271 13.3851C21.1944 13.4763 21.122 13.4964 21.0757 13.4964Z" stroke="#569FF3" stroke-width="1.5"/>
</svg>
