<svg width="40" height="40" viewBox="0 0 40 40" fill="none" xmlns="http://www.w3.org/2000/svg">
<path fill-rule="evenodd" clip-rule="evenodd" d="M3.8922 13.1249C2.99143 15.0038 3.30763 17.2013 3.94003 21.5965L4.40465 24.8253C5.217 30.4712 5.62318 33.294 7.58163 34.9803C9.54006 36.6667 12.4122 36.6667 18.1564 36.6667H21.8434C27.5876 36.6667 30.4597 36.6667 32.4182 34.9803C34.3766 33.294 34.7827 30.4712 35.5952 24.8253L36.0597 21.5965C36.6922 17.2013 37.0084 15.0038 36.1076 13.1249C35.2069 11.246 33.2896 10.1039 29.4551 7.81969L27.1469 6.44479C23.6649 4.37049 21.9237 3.33334 19.9999 3.33334C18.0761 3.33334 16.335 4.37049 12.8528 6.44479L10.5448 7.81969C6.71023 10.1039 4.79296 11.246 3.8922 13.1249ZM13.7501 29.9997C13.7501 29.3093 14.3097 28.7497 15.0001 28.7497H25.0001C25.6904 28.7497 26.2501 29.3093 26.2501 29.9997C26.2501 30.69 25.6904 31.2497 25.0001 31.2497H15.0001C14.3097 31.2497 13.7501 30.69 13.7501 29.9997Z" fill="#161C33"/>
</svg>
