<svg width="40" height="40" viewBox="0 0 40 40" fill="none" xmlns="http://www.w3.org/2000/svg">
<path fill-rule="evenodd" clip-rule="evenodd" d="M20.023 1.2728C29.8758 1.2728 37.9397 8.93556 37.9397 18.5057C37.9397 22.5095 36.4969 26.2062 34.0823 29.1225C30.8853 33.0943 25.8622 35.6405 20.2464 35.7063L20.187 35.7278C20.0164 35.7892 19.7692 35.8775 19.4607 35.986C18.844 36.2027 17.9809 36.5002 16.9942 36.8235C15.0335 37.4662 12.5389 38.2263 10.518 38.649C9.49505 38.863 8.44905 38.6197 7.65071 38.1013C6.85472 37.5845 6.16355 36.6877 6.16355 35.5288C6.16355 34.841 6.44105 34.1645 6.71138 33.6428C6.99888 33.0882 7.36771 32.5418 7.71505 32.0747C7.88488 31.846 8.05405 31.6303 8.21272 31.4348C4.46788 28.3025 2.10638 23.6768 2.10638 18.5057C2.10638 12.5854 5.18921 7.38651 9.87838 4.31016C12.7799 2.37118 16.2624 1.2728 20.023 1.2728ZM9.39388 10.0621C9.74238 9.46621 10.5079 9.26563 11.1039 9.61413C11.6999 9.96263 11.9004 10.7282 11.5519 11.3242C10.3115 13.4452 9.60638 15.8933 9.60638 18.5057C9.60638 21.1103 10.3104 23.5527 11.5512 25.6693C11.9004 26.2648 11.7005 27.0307 11.105 27.3798C10.5095 27.729 9.74371 27.5292 9.39455 26.9337C7.93588 24.4455 7.10638 21.5683 7.10638 18.5057C7.10638 15.436 7.93671 12.5539 9.39388 10.0621Z" fill="#161C33"/>
</svg>
