<svg width="23" height="23" viewBox="0 0 23 23" fill="none" xmlns="http://www.w3.org/2000/svg">
<path fill-rule="evenodd" clip-rule="evenodd" d="M7.13365 18.9905C6.838 20.5541 7.74788 22.1783 9.07796 22.6816C9.72309 22.9463 10.4061 22.887 10.975 22.669C11.542 22.4518 12.0845 22.0429 12.4209 21.4815L12.4219 21.4799L16.3822 14.9121C15.7774 14.5567 15.3652 13.849 15.3652 13.0339V9.70784e-06H17.0186H6.39138C4.63611 9.70784e-06 3.64737 1.21743 2.8952 2.54592C2.0706 4.0022 1.53446 5.5539 1.13602 6.93597C0.951979 7.57445 0.794912 8.18589 0.654051 8.7338L0.61968 8.86753C0.467724 9.45848 0.337523 9.95595 0.20667 10.3627C-0.154456 11.4851 -0.040571 12.603 0.5319 13.4517C1.09687 14.289 2.01828 14.7314 3.04129 14.7314H7.3922C7.48988 14.7314 7.56438 14.7754 7.60985 14.8329C7.64912 14.8824 7.69339 14.9753 7.67283 15.1437L7.13365 18.9905Z" fill="#569FF3"/>
<path d="M22.1636 12.9513C22.1636 13.6666 21.6766 14.2464 21.0758 14.2464H17.2688C16.6681 14.2464 16.1811 13.6666 16.1811 12.9513V1.91171e-05H21.0758C21.6766 1.91171e-05 22.1636 0.579935 22.1636 1.29516V12.9513Z" fill="#569FF3"/>
</svg>
