<svg width="25" height="23" viewBox="0 0 25 23" fill="none" xmlns="http://www.w3.org/2000/svg">
<path d="M12.5527 0.895508C13.0529 0.723564 13.6229 0.687938 14.1367 0.876953L14.1455 0.880859L14.1553 0.883789C15.2157 1.24392 15.9464 2.36497 15.835 3.44629L15.8008 3.66211L15.7969 3.68066L15.7939 3.7002L15.2012 7.49707L15.2002 7.50488L15.1992 7.51172C15.1482 7.88651 15.2569 8.19771 15.4482 8.41504V8.41602C15.6434 8.63739 15.9325 8.77051 16.251 8.77051H21.0371C21.9732 8.77051 22.7441 9.13052 23.1982 9.73438V9.7334C23.6252 10.3012 23.7591 11.0676 23.5059 11.9092L23.4502 12.0791C23.3734 12.2932 23.2971 12.5287 23.2197 12.7832L22.9805 13.6006L22.9424 13.7334C22.8647 14.0044 22.7839 14.2881 22.6973 14.5811L22.4189 15.4844C22.0431 16.654 21.5621 17.9213 20.8721 19.1318L20.5635 19.6465C19.7765 20.8935 18.885 21.8096 17.3516 21.8096H8.22949V9.69531C8.22944 8.90109 7.90264 8.18434 7.37891 7.66895L11.3379 1.78027L11.3418 1.77441C11.5699 1.4328 11.9414 1.14835 12.3672 0.966797L12.5527 0.895508Z" stroke="#569FF3" stroke-width="1.5"/>
<path d="M1.19629 9.24878H5.38477C5.58565 9.24878 5.83203 9.43805 5.83203 9.7771V21.8093H1.19629C0.995537 21.8091 0.75 21.6199 0.75 21.281V9.7771L0.760742 9.65698C0.810475 9.39379 1.02059 9.24899 1.19629 9.24878Z" stroke="#569FF3" stroke-width="1.5"/>
</svg>
