<svg width="25" height="23" viewBox="0 0 25 23" fill="none" xmlns="http://www.w3.org/2000/svg">
<path fill-rule="evenodd" clip-rule="evenodd" d="M16.5351 3.81641C16.8603 2.27319 15.8593 0.670115 14.396 0.173414C13.6863 -0.0878059 12.9349 -0.0293248 12.309 0.185824C11.6852 0.400267 11.0883 0.803819 10.7183 1.35786L10.7172 1.35944L6.36024 7.84177C7.02557 8.19255 7.47911 8.89104 7.47911 9.69551V22.5597H5.66016H17.3517C19.2827 22.5597 20.3705 21.3581 21.198 20.0469C22.1052 18.6096 22.695 17.0781 23.1334 15.714C23.3358 15.0839 23.5086 14.4804 23.6636 13.9396L23.7014 13.8076C23.8686 13.2244 24.0118 12.7334 24.1558 12.3319C24.5531 11.2241 24.4278 10.1208 23.798 9.28314C23.1764 8.45672 22.1628 8.02011 21.0373 8.02011H16.2506C16.1432 8.02011 16.0612 7.97666 16.0112 7.91993C15.968 7.87102 15.9193 7.77938 15.9419 7.6132L16.5351 3.81641Z" fill="#569FF3"/>
<path d="M0 9.77699C0 9.07107 0.535772 8.49878 1.19667 8.49878H5.385C6.04591 8.49878 6.58167 9.07107 6.58167 9.77699V22.5597H1.19667C0.535772 22.5597 0 21.9873 0 21.2814V9.77699Z" fill="#569FF3"/>
</svg>
